# 3ds Max Wavefront OBJ Exporter v0.97b - (c)2007 guruware
# File Created: 01.06.2016 20:02:55

#
# object Cylinder009
#

v  -390.9800 60.8515 935.6806
v  -367.5592 98.1110 566.5231
v  -390.9800 60.8516 566.5231
v  -400.2449 17.8288 935.6805
v  -400.2450 17.8288 566.5231
v  -394.2365 -25.7682 935.6805
v  -394.2365 -25.7681 566.5231
v  -373.6794 -64.6809 935.6805
v  -373.6794 -64.6808 566.5231
v  -341.0530 -94.2160 935.6805
v  -341.0531 -94.2159 566.5231
v  -300.2928 -110.8110 935.6805
v  -300.2928 -110.8109 566.5231
v  -256.3148 -112.4644 935.6805
v  -256.3148 -112.4643 566.5231
v  -214.4235 -98.9767 935.6805
v  -214.4236 -98.9766 566.5231
v  -197.7726 -86.0391 935.6805
v  -350.9084 111.0486 566.5231
v  -367.5591 98.1109 935.6806
v  -350.9083 111.0485 935.6806
v  -197.7727 -86.0390 566.5231
v  -345.2114 103.7165 577.9422
v  -203.4696 -78.7070 577.9421
v  -345.2114 103.7164 921.0475
v  -203.4696 -78.7070 921.0474
v  -368.9394 69.8989 577.9422
v  -382.2613 25.8063 577.9422
v  -368.9394 69.8989 921.0475
v  -382.2612 25.8063 921.0475
v  -379.6015 -17.5872 921.0475
v  -361.2810 -55.0474 921.0475
v  -329.5094 -82.0564 921.0475
v  -288.1189 -95.3562 921.0475
v  -242.1017 -93.3428 921.0474
v  -242.1017 -93.3428 577.9421
v  -288.1189 -95.3561 577.9421
v  -329.5094 -82.0563 577.9421
v  -361.2810 -55.0474 577.9422
v  -379.6016 -17.5871 577.9422
# 40 vertices

vn -0.7414 0.6711 0.0000
vn -0.9262 0.3771 0.0000
vn -0.9993 0.0376 0.0000
vn -0.9519 -0.3065 0.0000
vn -0.7897 -0.6136 0.0000
vn -0.5322 -0.8466 -0.0000
vn -0.2105 -0.9776 -0.0000
vn 0.1365 -0.9906 -0.0000
vn 0.4671 -0.8842 -0.0000
vn 0.6136 -0.7897 -0.0000
vn -0.6136 0.7897 0.0000
vn 0.8186 -0.5744 -0.0000
vn -0.2015 0.9795 0.0000
vn -0.3543 0.9351 0.0000
vn 0.1332 0.9911 0.0000
vn 0.4862 0.8739 0.0000
vn 0.7897 0.6136 -0.0000
vn 0.9669 0.2552 -0.0000
vn 0.9933 -0.1158 -0.0000
vn 0.9573 -0.2892 -0.0000
vn -0.0000 0.0000 -1.0000
vn 0.0000 -0.0000 1.0000
# 22 vertex normals

vt 0.0278 0.0000 1.0000
vt 0.0833 0.0000 1.0000
vt 0.0833 1.0000 1.0000
vt 0.0278 1.0000 1.0000
vt 0.1389 0.0000 1.0000
vt 0.1389 1.0000 1.0000
vt 0.1944 0.0000 1.0000
vt 0.1944 1.0000 1.0000
vt 0.2500 0.0000 1.0000
vt 0.2500 1.0000 1.0000
vt 0.3056 -0.0000 1.0000
vt 0.3056 1.0000 1.0000
vt 0.3056 0.0000 1.0000
vt 0.3611 0.0000 1.0000
vt 0.3611 1.0000 1.0000
vt 0.4167 0.0000 1.0000
vt 0.4167 1.0000 1.0000
vt 0.4722 0.0000 1.0000
vt 0.4722 1.0000 1.0000
vt 0.4988 1.0000 1.0000
vt 0.4988 0.0000 1.0000
vt 0.0012 1.0000 1.0000
vt 0.0012 0.0000 1.0000
vt 0.0357 0.0000 1.0000
vt 0.0357 1.0000 1.0000
vt 0.4643 1.0000 1.0000
vt 0.4643 0.0000 1.0000
vt 0.0780 0.0000 0.8794
vt 0.0999 0.0000 0.7708
vt 0.2380 0.0000 0.8794
vt 0.3687 0.0000 0.6527
vt 0.5153 0.0000 0.3473
vt 0.6600 0.0000 0.0000
vt 0.7854 0.0000 -0.3473
vt 0.8764 0.0000 -0.6527
vt 0.8982 0.0000 -0.7613
vt 0.1599 1.0000 0.6527
vt 0.1269 1.0000 0.8794
vt 0.1954 1.0000 0.5064
vt 0.2869 1.0000 0.8794
vt 0.4050 1.0000 0.6527
vt 0.5346 1.0000 0.3473
vt 0.6600 1.0000 0.0000
vt 0.7661 1.0000 -0.3473
vt 0.8016 1.0000 -0.4936
vt 0.1190 0.8140 0.0000
vt 0.1190 0.0814 0.0000
vt 0.0876 0.8452 0.0000
vt 0.9343 0.8452 0.0000
vt 0.9028 0.8140 0.0000
vt 0.9028 0.0814 0.0000
vt 0.9343 0.0570 0.0000
vt 0.0876 0.0570 0.0000
vt 0.1552 1.0000 0.6852
vt 0.7509 1.0000 -0.2975
vt 0.0788 0.0000 0.8967
vt 0.8633 0.0000 -0.6089
# 57 texture coords

g Cylinder009
s 8
f 2/1/1 3/2/2 1/3/2 20/4/1 
f 3/2/2 5/5/3 4/6/3 1/3/2 
f 5/5/3 7/7/4 6/8/4 4/6/3 
f 7/7/4 9/9/5 8/10/5 6/8/4 
f 9/9/5 11/11/6 10/12/6 8/10/5 
f 11/13/6 13/14/7 12/15/7 10/12/6 
f 13/14/7 15/16/8 14/17/8 12/15/7 
f 15/16/8 17/18/9 16/19/9 14/17/8 
f 18/20/10 16/19/9 17/18/9 22/21/10 
f 20/4/1 21/22/11 19/23/11 2/1/1 
f 29/3/12 27/2/12 23/24/12 25/25/12 
s 4
f 35/17/13 26/26/14 24/27/14 36/16/13 
f 35/17/13 36/16/13 37/14/15 34/15/15 
f 34/15/15 37/14/15 38/13/16 33/12/16 
f 33/12/16 38/11/16 39/9/17 32/10/17 
f 32/10/17 39/9/17 40/7/18 31/8/18 
f 31/8/18 40/7/18 28/5/19 30/6/19 
f 29/3/20 30/6/19 28/5/19 27/2/20 
s 1
f 5/5/21 3/2/21 2/28/21 19/29/21 
f 7/30/21 5/5/21 19/29/21 9/31/21 
f 11/32/21 9/31/21 19/29/21 13/33/21 
f 15/34/21 13/33/21 19/29/21 17/35/21 
f 17/35/21 19/29/21 22/36/21 
f 20/37/22 1/38/22 4/6/22 21/39/22 
f 21/39/22 4/6/22 6/8/22 8/40/22 
f 21/39/22 8/40/22 10/41/22 12/42/22 
f 21/39/22 12/42/22 14/43/22 16/44/22 
f 21/39/22 16/44/22 18/45/22 
s 2
f 25/46/17 23/47/17 21/48/17 18/49/17 
f 26/50/17 25/46/17 18/49/17 24/51/17 
f 24/51/17 18/49/17 22/52/17 19/53/17 
f 19/53/17 21/48/17 23/47/17 24/51/17 
s 1
f 33/41/21 32/40/21 31/8/21 34/42/21 
f 34/42/21 31/8/21 30/6/21 35/43/21 
f 35/43/21 30/6/21 29/38/21 25/54/21 
f 35/43/21 25/54/21 26/55/21 
f 40/30/22 39/31/22 38/32/22 37/33/22 
f 28/5/22 40/30/22 37/33/22 36/34/22 
f 27/2/22 28/5/22 36/34/22 23/56/22 
f 23/56/22 36/34/22 24/57/22 
# 36 polygons - 4 triangles

#
# object Box006
#

v  -201.4436 -88.7760 616.3958
v  -201.4436 -88.7760 591.6671
v  -207.1332 -81.4534 616.3958
v  -207.1332 -81.4534 591.6671
v  -156.5400 -50.2761 608.7936
v  -156.5400 -50.2761 599.2693
v  -158.7314 -47.4558 608.7936
v  -158.7314 -47.4558 599.2693
# 8 vertices

vn -0.7897 -0.6136 0.0000
vn 0.7897 0.6136 0.0000
vn 0.6509 -0.7592 -0.0000
vn 0.6509 -0.7592 0.0000
vn 0.1008 0.0783 -0.9918
vn -0.5748 0.8183 -0.0000
vn -0.5748 0.8183 0.0000
vn 0.1008 0.0783 0.9918
# 8 vertex normals

vt 1.0000 0.0000 0.0000
vt 1.0000 1.0000 0.0000
vt 0.0000 1.0000 0.0000
vt 0.0000 0.0000 0.0000
# 4 texture coords

g Box006
s 2
f 41/58/23 43/59/23 44/60/23 42/61/23 
s 4
f 45/61/24 46/58/24 48/59/24 47/60/24 
s 8
f 41/61/25 42/58/25 46/59/26 45/60/26 
s 16
f 42/61/27 44/58/27 48/59/27 46/60/27 
s 32
f 44/61/28 43/58/28 47/59/29 48/60/29 
s 64
f 43/61/30 41/58/30 45/59/30 47/60/30 
# 6 polygons

#
# object Box007
#

v  -201.4436 -88.7760 665.7568
v  -201.4436 -88.7760 641.0282
v  -207.1332 -81.4534 665.7568
v  -207.1332 -81.4534 641.0282
v  -156.5400 -50.2761 658.1547
v  -156.5400 -50.2761 648.6304
v  -158.7314 -47.4558 658.1547
v  -158.7314 -47.4558 648.6304
# 8 vertices

vn -0.7897 -0.6136 0.0000
vn 0.7897 0.6136 0.0000
vn 0.6509 -0.7592 -0.0000
vn 0.6509 -0.7592 0.0000
vn 0.1008 0.0783 -0.9918
vn -0.5748 0.8183 -0.0000
vn -0.5748 0.8183 0.0000
vn 0.1008 0.0783 0.9918
# 8 vertex normals

vt 1.0000 0.0000 0.0000
vt 1.0000 1.0000 0.0000
vt 0.0000 1.0000 0.0000
vt 0.0000 0.0000 0.0000
# 4 texture coords

g Box007
s 2
f 49/62/31 51/63/31 52/64/31 50/65/31 
s 4
f 53/65/32 54/62/32 56/63/32 55/64/32 
s 8
f 49/65/33 50/62/33 54/63/34 53/64/34 
s 16
f 50/65/35 52/62/35 56/63/35 54/64/35 
s 32
f 52/65/36 51/62/36 55/63/37 56/64/37 
s 64
f 51/65/38 49/62/38 53/63/38 55/64/38 
# 6 polygons

#
# object Box008
#

v  -201.4436 -88.7760 714.5347
v  -201.4436 -88.7760 689.8061
v  -207.1332 -81.4534 714.5347
v  -207.1332 -81.4534 689.8061
v  -156.5400 -50.2761 706.9326
v  -156.5400 -50.2761 697.4083
v  -158.7314 -47.4558 706.9326
v  -158.7314 -47.4558 697.4083
# 8 vertices

vn -0.7897 -0.6136 0.0000
vn 0.7897 0.6136 0.0000
vn 0.6509 -0.7592 -0.0000
vn 0.6509 -0.7592 0.0000
vn 0.1008 0.0783 -0.9918
vn -0.5748 0.8183 -0.0000
vn -0.5748 0.8183 0.0000
vn 0.1008 0.0783 0.9918
# 8 vertex normals

vt 1.0000 0.0000 0.0000
vt 1.0000 1.0000 0.0000
vt 0.0000 1.0000 0.0000
vt 0.0000 0.0000 0.0000
# 4 texture coords

g Box008
s 2
f 57/66/39 59/67/39 60/68/39 58/69/39 
s 4
f 61/69/40 62/66/40 64/67/40 63/68/40 
s 8
f 57/69/41 58/66/41 62/67/42 61/68/42 
s 16
f 58/69/43 60/66/43 64/67/43 62/68/43 
s 32
f 60/69/44 59/66/44 63/67/45 64/68/45 
s 64
f 59/69/46 57/66/46 61/67/46 63/68/46 
# 6 polygons

#
# object Box005
#

v  -201.4436 -88.7760 762.8999
v  -201.4436 -88.7760 738.1713
v  -207.1332 -81.4534 762.8999
v  -207.1332 -81.4534 738.1713
v  -156.5400 -50.2761 755.2977
v  -156.5400 -50.2761 745.7734
v  -158.7314 -47.4558 755.2977
v  -158.7314 -47.4558 745.7734
# 8 vertices

vn -0.7897 -0.6136 0.0000
vn 0.7897 0.6136 0.0000
vn 0.6509 -0.7592 -0.0000
vn 0.6509 -0.7592 0.0000
vn 0.1008 0.0783 -0.9918
vn -0.5748 0.8183 -0.0000
vn -0.5748 0.8183 0.0000
vn 0.1008 0.0783 0.9918
# 8 vertex normals

vt 1.0000 0.0000 0.0000
vt 1.0000 1.0000 0.0000
vt 0.0000 1.0000 0.0000
vt 0.0000 0.0000 0.0000
# 4 texture coords

g Box005
s 2
f 65/70/47 67/71/47 68/72/47 66/73/47 
s 4
f 69/73/48 70/70/48 72/71/48 71/72/48 
s 8
f 65/73/49 66/70/49 70/71/50 69/72/50 
s 16
f 66/73/51 68/70/51 72/71/51 70/72/51 
s 32
f 68/73/52 67/70/52 71/71/53 72/72/53 
s 64
f 67/73/54 65/70/54 69/71/54 71/72/54 
# 6 polygons

#
# object Box004
#

v  -201.4436 -88.7760 812.2609
v  -201.4436 -88.7760 787.5323
v  -207.1332 -81.4534 812.2609
v  -207.1332 -81.4534 787.5323
v  -156.5400 -50.2761 804.6588
v  -156.5400 -50.2761 795.1345
v  -158.7314 -47.4558 804.6588
v  -158.7314 -47.4558 795.1345
# 8 vertices

vn -0.7897 -0.6136 0.0000
vn 0.7897 0.6136 0.0000
vn 0.6509 -0.7592 -0.0000
vn 0.6509 -0.7592 0.0000
vn 0.1008 0.0783 -0.9918
vn -0.5748 0.8183 -0.0000
vn -0.5748 0.8183 0.0000
vn 0.1008 0.0783 0.9918
# 8 vertex normals

vt 1.0000 0.0000 0.0000
vt 1.0000 1.0000 0.0000
vt 0.0000 1.0000 0.0000
vt 0.0000 0.0000 0.0000
# 4 texture coords

g Box004
s 2
f 73/74/55 75/75/55 76/76/55 74/77/55 
s 4
f 77/77/56 78/74/56 80/75/56 79/76/56 
s 8
f 73/77/57 74/74/57 78/75/58 77/76/58 
s 16
f 74/77/59 76/74/59 80/75/59 78/76/59 
s 32
f 76/77/60 75/74/60 79/75/61 80/76/61 
s 64
f 75/77/62 73/74/62 77/75/62 79/76/62 
# 6 polygons

#
# object Box003
#

v  -201.4436 -88.7760 861.0389
v  -201.4436 -88.7760 836.3102
v  -207.1332 -81.4534 861.0389
v  -207.1332 -81.4534 836.3102
v  -156.5400 -50.2761 853.4367
v  -156.5400 -50.2761 843.9124
v  -158.7314 -47.4558 853.4367
v  -158.7314 -47.4558 843.9124
# 8 vertices

vn -0.7897 -0.6136 0.0000
vn 0.7897 0.6136 0.0000
vn 0.6509 -0.7592 -0.0000
vn 0.6509 -0.7592 0.0000
vn 0.1008 0.0783 -0.9918
vn -0.5748 0.8183 -0.0000
vn -0.5748 0.8183 0.0000
vn 0.1008 0.0783 0.9918
# 8 vertex normals

vt 1.0000 0.0000 0.0000
vt 1.0000 1.0000 0.0000
vt 0.0000 1.0000 0.0000
vt 0.0000 0.0000 0.0000
# 4 texture coords

g Box003
s 2
f 81/78/63 83/79/63 84/80/63 82/81/63 
s 4
f 85/81/64 86/78/64 88/79/64 87/80/64 
s 8
f 81/81/65 82/78/65 86/79/66 85/80/66 
s 16
f 82/81/67 84/78/67 88/79/67 86/80/67 
s 32
f 84/81/68 83/78/68 87/79/69 88/80/69 
s 64
f 83/81/70 81/78/70 85/79/70 87/80/70 
# 6 polygons

#
# object Box002
#

v  -201.4436 -88.7760 910.5298
v  -201.4436 -88.7760 885.8011
v  -207.1332 -81.4534 910.5298
v  -207.1332 -81.4534 885.8011
v  -156.5400 -50.2761 902.9276
v  -156.5400 -50.2761 893.4033
v  -158.7314 -47.4558 902.9276
v  -158.7314 -47.4558 893.4033
# 8 vertices

vn -0.7897 -0.6136 0.0000
vn 0.7897 0.6136 0.0000
vn 0.6509 -0.7592 -0.0000
vn 0.6509 -0.7592 0.0000
vn 0.1008 0.0783 -0.9918
vn -0.5748 0.8183 -0.0000
vn -0.5748 0.8183 0.0000
vn 0.1008 0.0783 0.9918
# 8 vertex normals

vt 1.0000 0.0000 0.0000
vt 1.0000 1.0000 0.0000
vt 0.0000 1.0000 0.0000
vt 0.0000 0.0000 0.0000
# 4 texture coords

g Box002
s 2
f 89/82/71 91/83/71 92/84/71 90/85/71 
s 4
f 93/85/72 94/82/72 96/83/72 95/84/72 
s 8
f 89/85/73 90/82/73 94/83/74 93/84/74 
s 16
f 90/85/75 92/82/75 96/83/75 94/84/75 
s 32
f 92/85/76 91/82/76 95/83/77 96/84/77 
s 64
f 91/85/78 89/82/78 93/83/78 95/84/78 
# 6 polygons

