# 3ds Max Wavefront OBJ Exporter v0.97b - (c)2007 guruware
# File Created: 28.05.2016 16:14:57

mtllib transenna1.mtl

#
# object Box001
#

v  89.7896 14.0912 54.7525
v  81.3841 68.1114 57.8462
v  83.6468 68.1114 63.9940
v  92.0524 14.0912 60.9003
v  75.2357 68.1114 63.4674
v  78.8541 68.1114 62.1356
v  78.2328 68.1114 60.4473
v  74.6143 68.1114 61.7792
v  70.5286 68.1114 61.8417
v  61.9281 14.0912 65.0072
v  64.1909 14.0912 71.1550
v  72.7914 68.1114 67.9895
v  71.2153 14.0912 61.5889
v  71.9098 29.8508 61.3333
v  74.1471 68.1114 60.5099
v  72.7107 46.5728 61.0385
v  72.3826 40.5262 61.1593
v  82.7652 14.0912 64.3185
v  82.4268 14.0912 63.3991
v  81.4792 14.0912 60.8244
v  80.5025 14.0912 58.1707
v  72.1920 14.0912 64.2426
v  73.1396 14.0912 66.8173
v  73.4780 14.0912 67.7367
v  76.4098 68.1114 66.6577
v  77.7656 68.1114 59.1781
v  80.0283 68.1114 65.3258
v  79.8541 29.8508 58.4093
v  79.4128 40.5262 58.5718
v  79.1065 46.5728 58.6845
v  74.3327 29.8384 67.4222
v  81.9674 29.8384 64.6121
v  81.1180 46.6038 64.9248
v  81.4243 40.5571 64.8120
v  74.9144 40.5571 67.2081
v  75.2426 46.6038 67.0873
# 36 vertices

vn 0.9258 0.1636 -0.3408
vn 0.0000 1.0000 -0.0000
vn -0.0000 1.0000 -0.0000
vn -0.0000 1.0000 0.0000
vn 0.0000 1.0000 0.0000
vn -0.9252 0.1673 0.3405
vn -0.3454 0.0000 -0.9385
vn 0.0000 -1.0000 -0.0000
vn -0.0000 -1.0000 -0.0000
vn 0.0000 -1.0000 0.0000
vn 0.3454 -0.0000 0.9385
vn -0.9434 -0.0514 0.3278
vn -0.9376 -0.0438 0.3451
vn -0.9395 -0.0463 0.3393
vn -0.9452 -0.0539 0.3219
vn -0.0007 -1.0000 -0.0018
vn 0.9350 -0.0496 -0.3511
vn 0.9374 -0.0469 -0.3450
vn 0.9301 -0.0550 -0.3632
vn 0.9276 -0.0577 -0.3692
vn -0.0016 1.0000 -0.0044
vn 0.0016 -1.0000 0.0044
# 22 vertex normals

vt 0.0000 0.0000 0.0000
vt 1.0000 0.0000 0.0000
vt 1.0000 1.0000 0.0000
vt 0.0000 1.0000 0.0000
vt 0.6667 0.5101 0.0000
vt 0.3333 0.5101 0.0000
vt 0.3333 0.3981 0.0000
vt 0.6667 0.3981 0.0000
vt 0.6667 0.0000 0.0000
vt 0.6667 0.2369 0.0000
vt 0.6667 1.0000 0.0000
vt 0.6667 0.6019 0.0000
vt 0.6667 0.4899 0.0000
vt 0.3333 0.0000 0.0000
vt 0.3333 0.4899 0.0000
vt 0.3333 0.6019 0.0000
vt 0.3333 1.0000 0.0000
vt 0.3333 0.2369 0.0000
vt 0.3333 0.2915 0.0000
vt 0.6667 0.2915 0.0000
# 20 texture coords

g Box001
usemtl wire_154154229
s 16
f 1/1/1 2/2/1 3/3/1 4/4/1 
s 32
f 5/5/2 6/6/3 7/7/4 8/8/5 
s 64
f 9/1/6 10/2/6 11/3/6 12/4/6 
s 2
f 13/9/7 10/2/7 9/3/7 14/10/7 
f 9/3/7 15/11/7 16/5/7 17/8/7 
f 9/3/7 17/8/7 14/10/7 
s 8
f 1/2/8 4/3/9 18/11/9 19/12/10 
f 1/2/8 19/12/10 20/13/8 21/9/9 
f 11/4/9 10/1/9 13/14/9 22/15/9 
f 11/4/9 22/15/9 23/16/10 24/17/9 
s 32
f 9/2/2 12/3/3 25/11/3 5/5/2 
f 9/2/2 5/5/2 8/8/5 15/9/5 
f 3/4/3 2/1/3 26/14/4 7/7/4 
f 3/4/3 7/7/4 6/6/3 27/17/3 
s 2
f 28/18/7 14/10/7 17/8/7 29/7/7 
f 2/4/7 1/1/7 21/14/7 28/18/7 
f 2/4/7 28/18/7 29/7/7 30/6/7 
f 26/17/7 2/4/7 30/6/7 15/11/7 
f 16/5/7 15/11/7 30/6/7 
s 4
f 12/4/11 11/1/11 24/14/11 31/19/11 
f 18/9/11 4/2/11 3/3/11 32/20/11 
f 3/3/11 27/11/11 33/12/11 34/13/11 
f 32/20/11 3/3/11 34/13/11 31/19/11 
f 31/19/11 34/13/11 35/15/11 12/4/11 
f 12/4/11 35/15/11 36/16/11 25/17/11 
f 27/11/11 25/17/11 36/16/11 33/12/11 
s 32
f 25/11/3 27/17/3 6/6/3 5/5/2 
f 26/14/4 15/9/5 8/8/5 7/7/4 
s 1
f 28/17/12 21/4/13 18/2/14 32/9/15 
s 8
f 31/11/16 14/14/16 28/17/16 32/9/16 
s 1
f 24/1/17 13/3/18 14/14/19 31/11/20 
f 34/1/21 29/2/21 17/4/21 35/3/21 
f 36/4/22 16/3/22 30/1/22 33/2/22 
# 31 polygons - 2 triangles

#
# object Box002
#

v  67.0188 14.0912 -7.1150
v  58.6132 68.1114 -4.0213
v  60.8759 68.1114 2.1265
v  69.2815 14.0912 -0.9672
v  52.4648 68.1114 1.5999
v  56.0833 68.1114 0.2681
v  55.4619 68.1114 -1.4202
v  51.8434 68.1114 -0.0883
v  47.7577 68.1114 -0.0258
v  39.1572 14.0912 3.1396
v  41.4200 14.0912 9.2874
v  50.0205 68.1114 6.1220
v  48.4444 14.0912 -0.2786
v  49.1389 29.8508 -0.5342
v  51.3762 68.1114 -1.3576
v  49.9398 46.5728 -0.8290
v  49.6117 40.5262 -0.7082
v  59.9943 14.0912 2.4510
v  59.6559 14.0912 1.5316
v  58.7083 14.0912 -1.0431
v  57.7316 14.0912 -3.6968
v  49.4211 14.0912 2.3751
v  50.3688 14.0912 4.9498
v  50.7072 14.0912 5.8692
v  53.6390 68.1114 4.7901
v  54.9947 68.1114 -2.6895
v  57.2575 68.1114 3.4583
v  57.0832 29.8508 -3.4582
v  56.6419 40.5262 -3.2957
v  56.3356 46.5728 -3.1830
v  51.5618 29.8384 5.5547
v  59.1965 29.8384 2.7446
v  58.3471 46.6038 3.0573
v  58.6535 40.5571 2.9445
v  52.1435 40.5571 5.3405
v  52.4717 46.6038 5.2198
# 36 vertices

vn 0.9258 0.1636 -0.3408
vn 0.0000 1.0000 -0.0000
vn -0.0000 1.0000 -0.0000
vn -0.0000 1.0000 0.0000
vn 0.0000 1.0000 0.0000
vn -0.9252 0.1673 0.3405
vn -0.3454 0.0000 -0.9385
vn 0.0000 -1.0000 -0.0000
vn -0.0000 -1.0000 -0.0000
vn 0.0000 -1.0000 0.0000
vn 0.3454 -0.0000 0.9385
vn -0.9434 -0.0514 0.3278
vn -0.9376 -0.0438 0.3451
vn -0.9395 -0.0463 0.3393
vn -0.9452 -0.0539 0.3219
vn -0.0007 -1.0000 -0.0018
vn 0.9350 -0.0496 -0.3511
vn 0.9374 -0.0469 -0.3450
vn 0.9301 -0.0550 -0.3632
vn 0.9276 -0.0577 -0.3692
vn -0.0016 1.0000 -0.0044
vn 0.0016 -1.0000 0.0044
# 22 vertex normals

vt 0.0000 0.0000 0.0000
vt 1.0000 0.0000 0.0000
vt 1.0000 1.0000 0.0000
vt 0.0000 1.0000 0.0000
vt 0.6667 0.5101 0.0000
vt 0.3333 0.5101 0.0000
vt 0.3333 0.3981 0.0000
vt 0.6667 0.3981 0.0000
vt 0.6667 0.0000 0.0000
vt 0.6667 0.2369 0.0000
vt 0.6667 1.0000 0.0000
vt 0.6667 0.6019 0.0000
vt 0.6667 0.4899 0.0000
vt 0.3333 0.0000 0.0000
vt 0.3333 0.4899 0.0000
vt 0.3333 0.6019 0.0000
vt 0.3333 1.0000 0.0000
vt 0.3333 0.2369 0.0000
vt 0.3333 0.2915 0.0000
vt 0.6667 0.2915 0.0000
# 20 texture coords

g Box002
usemtl wire_154154229
s 16
f 37/21/23 38/22/23 39/23/23 40/24/23 
s 32
f 41/25/24 42/26/25 43/27/26 44/28/27 
s 64
f 45/21/28 46/22/28 47/23/28 48/24/28 
s 2
f 49/29/29 46/22/29 45/23/29 50/30/29 
f 45/23/29 51/31/29 52/25/29 53/28/29 
f 45/23/29 53/28/29 50/30/29 
s 8
f 37/22/30 40/23/31 54/31/31 55/32/32 
f 37/22/30 55/32/32 56/33/30 57/29/31 
f 47/24/31 46/21/31 49/34/31 58/35/31 
f 47/24/31 58/35/31 59/36/32 60/37/31 
s 32
f 45/22/24 48/23/25 61/31/25 41/25/24 
f 45/22/24 41/25/24 44/28/27 51/29/27 
f 39/24/25 38/21/25 62/34/26 43/27/26 
f 39/24/25 43/27/26 42/26/25 63/37/25 
s 2
f 64/38/29 50/30/29 53/28/29 65/27/29 
f 38/24/29 37/21/29 57/34/29 64/38/29 
f 38/24/29 64/38/29 65/27/29 66/26/29 
f 62/37/29 38/24/29 66/26/29 51/31/29 
f 52/25/29 51/31/29 66/26/29 
s 4
f 48/24/33 47/21/33 60/34/33 67/39/33 
f 54/29/33 40/22/33 39/23/33 68/40/33 
f 39/23/33 63/31/33 69/32/33 70/33/33 
f 68/40/33 39/23/33 70/33/33 67/39/33 
f 67/39/33 70/33/33 71/35/33 48/24/33 
f 48/24/33 71/35/33 72/36/33 61/37/33 
f 63/31/33 61/37/33 72/36/33 69/32/33 
s 32
f 61/31/25 63/37/25 42/26/25 41/25/24 
f 62/34/26 51/29/27 44/28/27 43/27/26 
s 1
f 64/37/34 57/24/35 54/22/36 68/29/37 
s 8
f 67/31/38 50/34/38 64/37/38 68/29/38 
s 1
f 60/21/39 49/23/40 50/34/41 67/31/42 
f 70/21/43 65/22/43 53/24/43 71/23/43 
f 72/24/44 52/23/44 66/21/44 69/22/44 
# 31 polygons - 2 triangles

#
# object Box003
#

v  78.3386 51.8227 68.4138
v  80.0145 51.8227 67.7970
v  80.0145 63.9876 67.7970
v  78.3386 63.9876 68.4138
v  51.4340 51.8227 -4.6848
v  51.4340 63.9876 -4.6848
v  53.1099 63.9876 -5.3016
v  53.1099 51.8227 -5.3016
# 8 vertices

vn 0.3454 -0.0000 0.9385
vn -0.3454 0.0000 -0.9385
vn -0.0000 -1.0000 -0.0000
vn 0.9385 0.0000 -0.3454
vn 0.0000 1.0000 0.0000
vn -0.9385 0.0000 0.3454
# 6 vertex normals

vt 1.0000 0.0000 0.0000
vt 0.0000 0.0000 0.0000
vt 0.0000 1.0000 0.0000
vt 1.0000 1.0000 0.0000
# 4 texture coords

g Box003
usemtl wire_196088225
s 2
f 73/41/45 74/42/45 75/43/45 76/44/45 
s 4
f 77/42/46 78/43/46 79/44/46 80/41/46 
s 8
f 73/42/47 77/43/47 80/44/47 74/41/47 
s 16
f 74/42/48 80/43/48 79/44/48 75/41/48 
s 32
f 75/42/49 79/43/49 78/44/49 76/41/49 
s 64
f 76/42/50 78/43/50 77/44/50 73/41/50 
# 6 polygons

