# 3ds Max Wavefront OBJ Exporter v0.97b - (c)2007 guruware
# File Created: 17.06.2016 22:43:53

#
# object Line001
#

v  -119.4015 60.1040 -88.7429
v  -86.8522 60.2910 -88.7429
v  -86.8522 60.2910 -90.7429
v  -119.4015 60.1040 -90.7429
v  -130.9996 52.0602 -88.7429
v  -130.9996 52.0602 -90.7429
v  -135.6762 45.5129 -88.7429
v  -135.6762 45.5129 -90.7429
v  -138.6693 35.0372 -88.7429
v  -138.6693 35.0372 -90.7429
v  -139.0434 26.4322 -88.7429
v  -139.0434 26.4322 -90.7429
v  -139.2305 22.3168 -88.7429
v  -139.2305 22.3168 -90.7429
v  -78.9955 22.5039 -88.7429
v  -78.9955 22.5039 -90.7429
v  -78.6213 29.7994 -88.7429
v  -78.6213 29.7994 -90.7429
v  -84.4203 34.8502 -88.7429
v  -84.4203 34.8502 -90.7429
v  -85.9169 45.6999 -88.7429
v  -85.9169 45.6999 -90.7429
v  -83.4850 50.0024 -88.7429
v  -83.4850 50.0024 -90.7429
v  -83.1660 50.4049 -88.7429
v  -83.1660 50.4049 -90.7429
v  -82.8567 50.8172 -88.7429
v  -82.8567 50.8172 -90.7429
v  -82.5671 51.2492 -88.7429
v  -82.5671 51.2492 -90.7429
v  -82.3070 51.7106 -88.7429
v  -82.3070 51.7106 -90.7429
v  -82.0861 52.2112 -88.7429
v  -82.0861 52.2112 -90.7429
v  -81.9143 52.7610 -88.7429
v  -81.9143 52.7610 -90.7429
v  -81.8014 53.3696 -88.7429
v  -81.8014 53.3696 -90.7429
v  -81.8849 54.0819 -88.7429
v  -81.8849 54.0819 -90.7429
v  -82.2628 54.9218 -88.7429
v  -82.2628 54.9218 -90.7429
v  -82.8862 55.8680 -88.7429
v  -82.8862 55.8680 -90.7429
v  -83.7059 56.8993 -88.7429
v  -83.7059 56.8993 -90.7429
v  -84.6729 57.9944 -88.7429
v  -84.6729 57.9944 -90.7429
v  -85.7380 59.1321 -88.7429
v  -85.7380 59.1321 -90.7429
v  -84.0222 53.4910 -92.2765
v  -84.0167 53.4436 -92.2765
v  -84.0453 53.2896 -92.2765
v  -84.1411 52.9828 -92.2765
v  -84.1894 53.8625 -92.2765
v  -84.2688 52.6934 -92.2765
v  -84.4346 52.3993 -92.2765
v  -84.6448 52.0858 -92.2765
v  -84.6626 54.5808 -92.2765
v  -84.9016 51.7434 -92.2765
v  -85.3088 51.2298 -92.2765
v  -85.3863 55.4913 -92.2765
v  -86.2946 56.5199 -92.2765
v  -87.3279 57.6237 -92.2765
v  -87.7802 58.0941 -92.2765
v  -88.1891 46.1339 -92.2765
v  -118.7103 57.9163 -92.2765
v  -86.4792 33.7370 -92.2765
v  -129.4376 50.4764 -92.2765
v  -133.6729 44.5470 -92.2765
v  -136.4910 34.6837 -92.2765
v  -136.8540 26.3349 -92.2766
v  -80.8647 28.8469 -92.2766
v  -81.0779 24.6890 -92.2766
v  -136.9367 24.5155 -92.2766
v  -120.0379 56.3024 -88.7429
v  -120.0379 56.3024 -92.2765
v  -104.3348 56.3024 -88.7429
v  -104.3348 56.3024 -92.2765
v  -127.6562 49.6169 -88.7429
v  -127.6562 49.6169 -92.2765
v  -129.9884 45.4191 -88.7429
v  -129.9884 45.4191 -92.2765
v  -104.1793 45.2636 -88.7429
v  -104.1793 45.2636 -92.2765
v  -104.2311 48.9464 -89.3350
v  -128.0287 48.9464 -89.3350
v  -104.2311 48.9464 -90.1768
v  -128.0287 48.9464 -90.1768
v  -104.1793 45.2636 -89.3350
v  -129.9884 45.4191 -89.3350
v  -129.9884 45.4191 -90.1768
v  -104.1793 45.2636 -90.1768
# 93 vertices

vn -0.0057 1.0000 0.0000
vn -0.5699 0.8217 0.0000
vn -0.8137 0.5812 0.0000
vn -0.9615 0.2747 0.0000
vn -0.9991 0.0434 0.0000
vn -0.9990 0.0454 0.0000
vn 0.0031 -1.0000 -0.0000
vn 0.9987 -0.0512 -0.0000
vn 0.6568 0.7541 0.0000
vn 0.9906 0.1366 0.0000
vn 0.8706 -0.4921 -0.0000
vn 0.7919 -0.6107 -0.0000
vn 0.7837 -0.6212 -0.0000
vn 0.8156 -0.5786 -0.0000
vn 0.8515 -0.5244 -0.0000
vn 0.8941 -0.4479 -0.0000
vn 0.9362 -0.3515 -0.0000
vn 0.9706 -0.2408 -0.0000
vn 0.9994 -0.0334 -0.0000
vn 0.9638 0.2665 0.0000
vn 0.8763 0.4818 0.0000
vn 0.8098 0.5868 0.0000
vn 0.7665 0.6423 0.0000
vn 0.7399 0.6727 0.0000
vn 0.7255 0.6883 0.0000
vn 0.7209 0.6931 0.0000
vn -0.0033 0.5733 -0.8193
vn 0.4133 0.3974 -0.8193
vn 0.4185 0.3919 -0.8193
vn 0.4298 0.3795 -0.8193
vn 0.4488 0.3567 -0.8193
vn 0.4788 0.3154 -0.8193
vn 0.5228 0.2353 -0.8193
vn 0.5694 0.0667 -0.8193
vn 0.5637 -0.1046 -0.8193
vn 0.5472 -0.1710 -0.8193
vn 0.5246 -0.2314 -0.8193
vn 0.4994 -0.2816 -0.8193
vn 0.4762 -0.3193 -0.8193
vn 0.4587 -0.3440 -0.8193
vn 0.4493 -0.3562 -0.8193
vn 0.4991 -0.2821 -0.8193
vn 0.5680 0.0783 -0.8193
vn 0.3766 0.4323 -0.8193
vn 0.5726 -0.0294 -0.8193
vn 0.0018 -0.5733 -0.8193
vn -0.5727 0.0260 -0.8193
vn -0.5728 0.0249 -0.8193
vn -0.5513 0.1575 -0.8193
vn -0.4665 0.3332 -0.8193
vn -0.3267 0.4711 -0.8193
vn 0.6596 -0.7516 -0.0000
vn 0.0000 -1.0000 -0.0000
vn 0.0060 1.0000 0.0000
vn -0.0000 -0.0000 -1.0000
vn 0.0000 0.0000 -1.0000
vn -0.0000 0.0000 -1.0000
vn 0.0000 1.0000 0.0000
vn 0.0000 -0.0000 1.0000
vn 0.0000 0.0000 1.0000
vn -0.9999 -0.0141 -0.0000
vn 0.8742 -0.4856 -0.0000
vn 0.8742 -0.4856 0.0000
# 63 vertex normals

vt 0.4114 0.2857 -0.7540
vt 0.5498 0.2865 -0.7540
vt 0.5498 0.2950 -0.7540
vt 0.4113 0.2942 -0.7540
vt 0.3514 0.2854 -0.7540
vt 0.3513 0.2939 -0.7540
vt 0.3171 0.2852 0.7540
vt 0.3171 0.2937 -0.7540
vt 0.2708 0.2850 -0.7540
vt 0.2708 0.2935 -0.7540
vt 0.2342 0.2848 -0.7540
vt 0.2342 0.2933 -0.7540
vt 0.2167 0.2847 -0.7540
vt 0.2166 0.2932 -0.7540
vt 0.7371 0.2883 -0.7540
vt 0.9980 0.2914 -0.7540
vt 0.9979 0.3001 -0.7540
vt 0.7370 0.2970 -0.7540
vt 0.7053 0.2966 -0.7540
vt 0.7055 0.2880 -0.7540
vt 0.6722 0.2876 -0.7540
vt 0.6721 0.2962 -0.7540
vt 0.6247 0.2957 -0.7540
vt 0.6248 0.2871 0.7540
vt 0.6035 0.2868 -0.7540
vt 0.6034 0.2955 -0.7540
vt 0.6013 0.2868 -0.7540
vt 0.6012 0.2954 -0.7540
vt 0.5990 0.2868 -0.7540
vt 0.5989 0.2954 -0.7540
vt 0.5968 0.2868 -0.7540
vt 0.5967 0.2954 -0.7540
vt 0.5945 0.2868 -0.7540
vt 0.5944 0.2954 -0.7540
vt 0.5922 0.2867 -0.7540
vt 0.5921 0.2953 -0.7540
vt 0.5897 0.2867 -0.7540
vt 0.5896 0.2953 -0.7540
vt 0.5870 0.2867 -0.7540
vt 0.5870 0.2953 -0.7540
vt 0.5840 0.2867 -0.7540
vt 0.5839 0.2952 -0.7540
vt 0.5800 0.2867 -0.7540
vt 0.5800 0.2952 -0.7540
vt 0.5752 0.2866 -0.7540
vt 0.5751 0.2952 -0.7540
vt 0.5696 0.2866 -0.7540
vt 0.5695 0.2951 -0.7540
vt 0.5633 0.2951 -0.7540
vt 0.5633 0.2866 -0.7540
vt 0.5566 0.2950 -0.7540
vt 0.5567 0.2865 -0.7540
vt 0.1232 0.0020 -0.2744
vt 0.2628 0.0055 -0.2744
vt 0.2585 0.0168 -0.2744
vt 0.1258 0.0135 -0.2744
vt 0.2681 0.0099 -0.2744
vt 0.2606 0.0186 -0.2744
vt 0.2731 0.0143 -0.2744
vt 0.2655 0.0229 -0.2744
vt 0.2778 0.0185 -0.2744
vt 0.2699 0.0268 -0.2744
vt 0.2818 0.0224 -0.2744
vt 0.2735 0.0303 -0.2744
vt 0.2850 0.0261 -0.2744
vt 0.2759 0.0331 -0.2744
vt 0.2872 0.0294 -0.2744
vt 0.2769 0.0346 -0.2744
vt 0.2882 0.0323 -0.2744
vt 0.2769 0.0348 -0.2744
vt 0.2885 0.0349 -0.2744
vt 0.2770 0.0354 -0.2744
vt 0.2885 0.0374 -0.2744
vt 0.2770 0.0368 -0.2744
vt 0.2883 0.0397 -0.2744
vt 0.2769 0.0382 -0.2744
vt 0.2878 0.0420 -0.2744
vt 0.2766 0.0396 -0.2744
vt 0.2873 0.0441 -0.2744
vt 0.2762 0.0412 -0.2744
vt 0.2867 0.0463 -0.2744
vt 0.2757 0.0429 -0.2744
vt 0.2860 0.0484 -0.2744
vt 0.2749 0.0456 -0.2744
vt 0.2823 0.0693 0.2744
vt 0.2704 0.0704 -0.2744
vt 0.2990 0.1132 -0.2744
vt 0.2895 0.1206 -0.2744
vt 0.3260 0.1322 -0.2744
vt 0.3157 0.1390 -0.2744
vt 0.3323 0.1630 -0.2744
vt 0.3193 0.1565 -0.2744
vt 0.0995 0.2760 -0.2744
vt 0.1033 0.2613 -0.2744
vt 0.0080 0.1282 -0.2744
vt 0.0188 0.1321 -0.2744
vt 0.0161 0.1394 -0.2744
vt 0.0020 0.1448 -0.2744
vt 0.0203 0.0934 -0.2744
vt 0.0308 0.0983 -0.2744
vt 0.0442 0.0532 -0.2744
vt 0.0532 0.0604 -0.2020
vt 0.0693 0.0295 -0.2744
vt 0.0760 0.0390 -0.2744
vt 0.0661 0.5025 -0.7412
vt 0.0665 0.5177 -0.7412
vt 0.0230 0.5189 0.7412
vt 0.0226 0.5037 -0.7412
vt 0.1335 0.5006 -0.7412
vt 0.1339 0.5158 -0.7412
vt 0.0020 0.5292 -0.4412
vt 0.1128 0.5281 -0.4412
vt 0.1128 0.5307 0.4412
vt 0.0020 0.5317 0.4412
vt 0.3275 0.3178 -0.3242
vt 0.2167 0.3189 -0.3242
vt 0.2166 0.3098 0.3242
vt 0.3274 0.3088 0.3242
vt 0.3492 0.1944 -0.3242
vt 0.4513 0.1928 -0.3242
vt 0.4518 0.2086 0.3242
vt 0.3410 0.2097 0.3242
vt 0.3410 0.2220 -0.4412
vt 0.3410 0.2184 0.4412
vt 0.4432 0.2184 0.4412
vt 0.4432 0.2220 -0.4412
vt 0.6510 0.0020 0.4412
vt 0.6509 0.0178 -0.4412
vt 0.5487 0.0182 -0.4412
vt 0.5402 0.0031 0.4412
vt 0.5202 0.1612 0.0000
vt 0.5208 0.1592 0.0000
vt 0.5208 0.1589 0.0000
vt 0.5207 0.1581 0.0000
vt 0.5204 0.1564 0.0000
vt 0.5200 0.1548 0.0000
vt 0.5194 0.1532 0.0000
vt 0.5187 0.1515 0.0000
vt 0.5186 0.1651 0.0000
vt 0.5178 0.1497 0.0000
vt 0.5164 0.1469 0.0000
vt 0.5162 0.1700 0.0000
vt 0.5131 0.1756 0.0000
vt 0.5096 0.1816 0.0000
vt 0.5080 0.1841 0.0000
vt 0.5066 0.1192 0.0000
vt 0.4523 0.1145 0.0000
vt 0.4518 0.1744 0.0000
vt 0.4029 0.1832 0.0000
vt 0.3984 0.1744 0.0000
vt 0.3725 0.1381 0.0000
vt 0.3665 0.1428 0.0000
vt 0.3646 0.1154 0.0000
vt 0.3521 0.1106 0.0000
vt 0.5125 0.0520 0.0000
vt 0.3425 0.0571 0.0000
vt 0.5315 0.0255 0.0000
vt 0.5308 0.0029 0.0000
vt 0.3413 0.0119 0.0000
vt 0.3410 0.0020 0.0000
vt 0.1832 0.4115 0.0000
vt 0.1800 0.4906 0.0000
vt 0.1206 0.4690 0.0000
vt 0.1211 0.4091 0.0000
vt 0.1883 0.3526 0.0000
vt 0.0334 0.4100 0.0000
vt 0.1968 0.4498 0.0000
vt 0.1972 0.4531 0.0000
vt 0.1969 0.4569 0.0000
vt 0.1962 0.4468 0.0000
vt 0.1956 0.4615 0.0000
vt 0.1954 0.4441 0.0000
vt 0.1945 0.4416 0.0000
vt 0.1936 0.4392 0.0000
vt 0.1935 0.4666 0.0000
vt 0.1925 0.4370 0.0000
vt 0.1914 0.4348 0.0000
vt 0.1907 0.4722 0.0000
vt 0.1874 0.4782 0.0000
vt 0.1838 0.4843 0.0000
vt 0.0694 0.4896 0.0000
vt 0.0672 0.4690 0.0000
vt 0.0300 0.4460 0.0000
vt 0.0413 0.4327 0.0000
vt 0.0141 0.4105 0.0000
vt 0.0039 0.3537 0.0000
vt 0.0026 0.3070 0.0000
vt 0.2080 0.3252 0.0000
vt 0.2067 0.2857 0.0000
vt 0.0020 0.2847 0.0000
vt 0.1654 0.5124 0.5082
vt 0.1812 0.5119 -0.7412
vt 0.1813 0.5145 -0.7412
vt 0.1653 0.5088 -0.7412
vt 0.1809 0.4993 -0.7412
vt 0.1811 0.5083 -0.7412
vt 0.0024 0.5194 -0.7412
vt 0.0024 0.5169 -0.7412
vt 0.0197 0.5164 -0.7412
vt 0.0196 0.5128 -0.7412
vt 0.0020 0.5043 -0.7412
vt 0.0023 0.5133 -0.7412
# 202 texture coords

g Line001
s 1
f 1/1/1 2/2/1 3/3/1 4/4/1 
s 4
f 5/5/2 1/1/2 4/4/2 6/6/2 
s 2
f 7/7/3 5/5/3 6/6/3 8/8/3 
s 4
f 9/9/4 7/7/4 8/8/4 10/10/4 
s 2
f 11/11/5 9/9/5 10/10/5 12/12/5 
s 4
f 13/13/6 11/11/6 12/12/6 14/14/6 
s 2
f 15/15/7 13/16/7 14/17/7 16/18/7 
s 4
f 15/15/8 16/18/8 18/19/8 17/20/8 
s 2
f 19/21/9 17/20/9 18/19/9 20/22/9 
s 4
f 19/21/10 20/22/10 22/23/10 21/24/10 
s 2
f 23/25/11 21/24/11 22/23/11 24/26/11 
s 4
f 25/27/12 23/25/13 24/26/13 26/28/12 
f 27/29/14 25/27/12 26/28/12 28/30/14 
f 29/31/15 27/29/14 28/30/14 30/32/15 
f 31/33/16 29/31/15 30/32/15 32/34/16 
f 33/35/17 31/33/16 32/34/16 34/36/17 
f 35/37/18 33/35/17 34/36/17 36/38/18 
f 37/39/19 35/37/18 36/38/18 38/40/19 
f 39/41/20 37/39/19 38/40/19 40/42/20 
f 41/43/21 39/41/20 40/42/20 42/44/21 
f 43/45/22 41/43/21 42/44/21 44/46/22 
f 45/47/23 43/45/22 44/46/22 46/48/23 
f 45/47/23 46/48/23 48/49/24 47/50/24 
f 47/50/24 48/49/24 50/51/25 49/52/25 
f 2/2/26 49/52/25 50/51/25 3/3/26 
s off
f 4/53/27 3/54/27 65/55/27 67/56/27 
f 50/57/28 64/58/28 65/55/28 3/54/28 
f 50/57/29 48/59/29 63/60/29 64/58/29 
f 48/59/30 46/61/30 62/62/30 63/60/30 
f 46/61/31 44/63/31 59/64/31 62/62/31 
f 44/63/32 42/65/32 55/66/32 59/64/32 
f 42/65/33 40/67/33 51/68/33 55/66/33 
f 38/69/34 52/70/34 51/68/34 40/67/34 
f 36/71/35 53/72/35 52/70/35 38/69/35 
f 34/73/36 54/74/36 53/72/36 36/71/36 
f 32/75/37 56/76/37 54/74/37 34/73/37 
f 30/77/38 57/78/38 56/76/38 32/75/38 
f 28/79/39 58/80/39 57/78/39 30/77/39 
f 26/81/40 60/82/40 58/80/40 28/79/40 
f 24/83/41 61/84/41 60/82/41 26/81/41 
f 22/85/42 66/86/42 61/84/42 24/83/42 
f 20/87/43 68/88/43 66/86/43 22/85/43 
f 20/87/44 18/89/44 73/90/44 68/88/44 
f 18/89/45 16/91/45 74/92/45 73/90/45 
f 16/91/46 14/93/46 75/94/46 74/92/46 
f 12/95/47 72/96/47 75/97/47 14/98/47 
f 12/95/48 10/99/48 71/100/48 72/96/48 
f 10/99/49 8/101/49 70/102/49 71/100/49 
f 8/101/50 6/103/50 69/104/50 70/102/50 
f 6/103/51 4/53/51 67/56/51 69/104/51 
s 4
f 77/105/52 76/106/52 80/107/52 81/108/52 
s 1
f 79/109/53 78/110/53 76/106/53 77/105/53 
f 82/111/54 84/112/54 90/113/54 91/114/54 
f 85/115/54 83/116/54 92/117/54 93/118/54 
s 8
f 89/119/55 88/120/56 93/121/57 92/122/55 
s 1
f 89/123/58 87/124/58 86/125/58 88/126/58 
s 4
f 90/127/59 86/128/59 87/129/60 91/130/60 
s 16
f 55/131/56 51/132/56 52/133/56 53/134/56 
f 55/131/56 53/134/56 54/135/56 56/136/56 
f 55/131/56 56/136/56 57/137/56 58/138/56 
f 59/139/56 55/131/56 58/138/56 60/140/56 
f 59/139/56 60/140/56 61/141/56 62/142/56 
f 63/143/56 62/142/56 61/141/56 64/144/56 
f 65/145/56 64/144/56 61/141/56 66/146/56 
f 65/145/56 66/146/56 85/147/56 79/148/56 
f 67/149/56 65/145/56 79/148/56 77/150/56 
f 67/149/56 77/150/56 81/151/56 69/152/56 
f 69/152/56 81/151/56 83/153/56 70/154/56 
f 85/147/56 66/146/56 68/155/56 83/153/56 
f 70/154/56 83/153/56 68/155/56 71/156/56 
f 71/156/56 68/155/56 73/157/56 74/158/56 
f 72/159/56 71/156/56 74/158/56 75/160/56 
f 21/161/59 2/162/59 78/163/59 84/164/59 
f 19/165/59 21/161/59 84/164/59 82/166/59 
f 35/167/59 37/168/59 39/169/59 33/170/59 
f 33/170/59 39/169/59 41/171/59 31/172/59 
f 29/173/59 31/172/59 41/171/59 27/174/59 
f 27/174/59 41/171/59 43/175/59 25/176/59 
f 23/177/59 25/176/59 43/175/59 45/178/59 
f 23/177/59 45/178/59 47/179/59 49/180/59 
f 23/177/59 49/180/59 2/162/59 21/161/59 
f 78/163/59 2/162/59 1/181/59 76/182/59 
f 76/182/59 1/181/59 5/183/59 80/184/59 
f 80/184/59 5/183/59 7/185/59 82/166/59 
f 19/165/59 82/166/59 7/185/59 9/186/59 
f 19/165/59 9/186/59 11/187/59 17/188/59 
f 15/189/59 17/188/59 11/187/59 13/190/59 
s 2
f 86/191/61 90/192/61 84/193/61 78/110/61 
f 88/194/61 86/191/61 78/110/61 79/109/61 
f 88/194/61 79/109/61 85/195/61 93/196/61 
f 82/197/62 91/198/62 87/199/62 80/107/62 
f 80/107/62 87/199/62 89/200/63 81/108/63 
f 83/201/63 81/108/63 89/200/63 92/202/62 
# 93 polygons

