# 3ds Max Wavefront OBJ Exporter v0.97b - (c)2007 guruware
# File Created: 26.12.2015 20:44:35

mtllib AK_Danger_Sign_Biohazard.mtl

#
# object AK_Danger_Sign_Biohazard
#

v  -1.0322 15.0581 2.6356
v  -17.9560 -14.1940 2.6351
v  -17.9560 -14.1940 2.9913
v  -1.0323 15.0581 2.9907
v  1.0323 15.0581 2.9907
v  17.9560 -14.1940 2.9913
v  17.9560 -14.1940 2.6351
v  1.0323 15.0581 2.6356
v  -0.5161 15.6875 2.6356
v  -0.5161 15.6875 2.9907
v  16.9703 -15.8974 2.9913
v  -16.9703 -15.8974 2.9913
v  -16.9703 -15.8974 2.6351
v  16.9703 -15.8974 2.6351
v  0.0000 15.8974 2.6356
v  0.0000 15.8974 2.9907
v  0.5161 15.6875 2.6356
v  0.5161 15.6875 2.9907
v  17.4823 -15.6263 2.9913
v  -17.4823 -15.6263 2.9913
v  17.9720 -14.7874 2.6351
v  17.9720 -14.7874 2.9913
v  -17.9720 -14.7874 2.9913
v  -17.9720 -14.7874 2.6351
v  17.4823 -15.6263 2.6351
v  -17.4823 -15.6263 2.6351
v  17.8573 -15.2828 2.6351
v  17.8573 -15.2828 2.9913
v  -17.8573 -15.2828 2.9913
v  -17.8573 -15.2828 2.6351
v  -0.3733 13.5517 3.5186
v  -0.5279 13.3971 2.9907
v  0.0000 13.1784 2.9907
v  0.0000 13.3971 3.5186
v  -0.5279 13.9250 3.5186
v  -0.7465 13.9250 2.9907
v  -0.3733 14.2983 3.5186
v  -0.5279 14.4529 2.9907
v  0.0000 14.4529 3.5186
v  0.0000 14.6715 2.9796
v  0.3733 14.2983 3.5186
v  0.5279 14.4529 2.9796
v  0.5279 13.9250 3.5186
v  0.7466 13.9250 2.9907
v  0.3733 13.5517 3.5186
v  0.5279 13.3971 2.9907
v  0.0000 13.9250 3.7373
v  16.1222 -14.7360 3.5186
v  15.9676 -14.8906 2.9907
v  16.4955 -15.1093 2.9907
v  16.4955 -14.8906 3.5186
v  15.9676 -14.3627 3.5186
v  15.7490 -14.3627 2.9907
v  16.1222 -13.9894 3.5186
v  15.9676 -13.8348 2.9907
v  16.4955 -13.8348 3.5186
v  16.4955 -13.6161 2.9907
v  16.8688 -13.9894 3.5186
v  17.0234 -13.8348 2.9907
v  17.0234 -14.3627 3.5186
v  17.2421 -14.3627 2.9907
v  16.8688 -14.7360 3.5186
v  17.0234 -14.8906 2.9907
v  16.4955 -14.3627 3.7373
v  -16.9013 -14.7360 3.5186
v  -17.0559 -14.8906 2.9907
v  -16.5280 -15.1093 2.9907
v  -16.5280 -14.8906 3.5186
v  -17.0559 -14.3627 3.5186
v  -17.2746 -14.3627 2.9907
v  -16.9013 -13.9894 3.5186
v  -17.0559 -13.8348 2.9907
v  -16.5280 -13.8348 3.5186
v  -16.5280 -13.6161 2.9907
v  -16.1548 -13.9894 3.5186
v  -16.0001 -13.8348 2.9907
v  -16.0001 -14.3627 3.5186
v  -15.7815 -14.3627 2.9907
v  -16.1548 -14.7360 3.5186
v  -16.0001 -14.8906 2.9907
v  -16.5280 -14.3627 3.7373
v  0.0000 13.3950 2.9907
v  -0.3747 13.5502 2.9907
v  -0.3747 13.5502 0.0000
v  0.0000 13.3950 0.0000
v  -0.5300 13.9250 2.9907
v  -0.5300 13.9250 -0.0000
v  -0.3747 14.2997 2.9907
v  -0.3747 14.2997 -0.0000
v  0.0000 14.4550 2.9796
v  0.0000 14.4550 0.0000
v  0.3748 14.2997 2.9796
v  0.3748 14.2997 0.0000
v  0.5300 13.9250 2.9907
v  0.5300 13.9250 0.0000
v  0.3748 13.5502 2.9907
v  0.3748 13.5502 0.0000
v  16.4955 -14.8927 2.9907
v  16.1208 -14.7375 2.9907
v  16.1208 -14.7375 0.0000
v  16.4955 -14.8927 0.0000
v  15.9655 -14.3627 2.9907
v  15.9655 -14.3627 -0.0000
v  16.1208 -13.9879 2.9907
v  16.1208 -13.9879 -0.0000
v  16.4955 -13.8327 2.9796
v  16.4955 -13.8327 0.0000
v  16.8703 -13.9879 2.9796
v  16.8703 -13.9879 0.0000
v  17.0255 -14.3627 2.9907
v  17.0255 -14.3627 0.0000
v  16.8703 -14.7375 2.9907
v  16.8703 -14.7375 0.0000
v  -16.5280 -14.8927 2.9907
v  -16.9028 -14.7375 2.9907
v  -16.9028 -14.7375 -0.0000
v  -16.5280 -14.8927 -0.0000
v  -17.0580 -14.3627 2.9907
v  -17.0580 -14.3627 -0.0000
v  -16.9028 -13.9879 2.9907
v  -16.9028 -13.9879 -0.0000
v  -16.5280 -13.8327 2.9796
v  -16.5280 -13.8327 -0.0000
v  -16.1533 -13.9879 2.9796
v  -16.1533 -13.9879 -0.0000
v  -15.9981 -14.3627 2.9907
v  -15.9981 -14.3627 -0.0000
v  -16.1533 -14.7375 2.9907
v  -16.1533 -14.7375 -0.0000
# 129 vertices

vn -0.8221 0.5693 -0.0000
vn -0.9622 0.2723 -0.0000
vn 0.8221 0.5693 0.0000
vn 0.9622 0.2723 -0.0000
vn -0.5932 0.8050 -0.0000
vn 0.2411 -0.9705 0.0000
vn -0.2411 -0.9705 0.0000
vn -0.3766 0.9264 -0.0000
vn 0.5932 0.8050 -0.0000
vn 0.3766 0.9264 -0.0000
vn -0.0000 0.0000 1.0000
vn 0.9950 -0.1000 -0.0000
vn -0.9950 -0.1000 -0.0000
vn -0.9950 -0.1001 -0.0000
vn 0.5763 -0.8172 0.0000
vn -0.5763 -0.8172 0.0000
vn 0.9742 -0.2255 -0.0000
vn -0.9742 -0.2255 -0.0000
vn 0.6754 -0.7374 0.0000
vn -0.6754 -0.7374 0.0000
vn 0.0000 0.0000 -1.0000
vn 0.0000 -0.0000 -1.0000
vn -0.5294 -0.5294 0.6630
vn -0.6533 -0.6533 0.3827
vn -0.0000 -0.9239 0.3827
vn -0.0000 -0.7486 0.6630
vn -0.7486 -0.0000 0.6630
vn -0.9239 0.0000 0.3827
vn -0.5294 0.5294 0.6630
vn -0.6503 0.6571 0.3812
vn 0.0012 0.7506 0.6608
vn 0.0059 0.9266 0.3759
vn 0.5312 0.5312 0.6601
vn 0.6515 0.6582 0.3774
vn 0.7492 0.0012 0.6623
vn 0.9239 0.0059 0.3827
vn 0.5294 -0.5294 0.6630
vn 0.6533 -0.6533 0.3827
vn -0.0000 -0.0000 1.0000
vn 0.0000 -0.9239 0.3827
vn 0.0000 -0.7486 0.6630
vn -0.9239 -0.0000 0.3827
vn -0.6533 0.6533 0.3827
vn 0.0000 0.7486 0.6630
vn -0.0000 0.9239 0.3827
vn 0.5294 0.5294 0.6630
vn 0.6533 0.6533 0.3827
vn 0.7486 0.0000 0.6630
vn 0.9239 0.0000 0.3827
vn 0.0000 0.0000 1.0000
vn 0.0000 -1.0000 -0.0000
vn -0.7071 -0.7071 -0.0000
vn -0.0000 -1.0000 0.0000
vn -1.0000 0.0000 -0.0000
vn -0.7097 0.7045 -0.0000
vn -0.7071 0.7071 -0.0000
vn -0.0036 1.0000 0.0000
vn -0.0000 1.0000 -0.0000
vn 0.7096 0.7046 0.0000
vn 0.7071 0.7071 0.0000
vn 1.0000 -0.0036 0.0000
vn 1.0000 -0.0000 0.0000
vn 0.7071 -0.7071 0.0000
vn -0.0000 -1.0000 -0.0000
vn -0.7071 -0.7071 0.0000
vn -1.0000 0.0000 0.0000
vn -0.7097 0.7045 0.0000
vn -0.7071 0.7071 0.0000
vn 0.7096 0.7046 -0.0000
vn 0.7071 0.7071 -0.0000
vn 1.0000 -0.0036 -0.0000
vn 1.0000 0.0000 -0.0000
vn 0.7071 -0.7071 -0.0000
vn 0.0000 -1.0000 0.0000
vn 0.0000 1.0000 -0.0000
# 75 vertex normals

vt 0.4668 0.9332 0.0000
vt 0.0302 0.1786 0.0000
vt 0.0369 0.1749 0.0000
vt 0.4734 0.9296 0.0000
vt 0.5267 0.9296 0.0000
vt 0.9633 0.1749 0.0000
vt 0.9699 0.1787 0.0000
vt 0.5333 0.9334 0.0000
vt 0.4763 0.9518 0.0000
vt 0.4831 0.9484 0.0000
vt 0.9380 0.1309 0.0000
vt 0.0624 0.1308 0.0000
vt 0.0624 0.1231 0.0000
vt 0.9379 0.1233 0.0000
vt 0.4828 0.9646 0.0000
vt 0.4896 0.9612 0.0000
vt 0.5225 0.9515 0.0000
vt 0.5151 0.9638 0.0000
vt 0.5086 0.9599 0.0000
vt 0.5160 0.9476 0.0000
vt 0.5134 0.9458 0.0000
vt 0.4868 0.9458 0.0000
vt 0.5001 0.9512 0.0000
vt 0.9512 0.1379 0.0000
vt 0.0491 0.1379 0.0000
vt 0.9775 0.1654 0.0000
vt 0.9708 0.1616 0.0000
vt 0.0296 0.1614 0.0000
vt 0.0229 0.1651 0.0000
vt 0.9528 0.1230 0.0000
vt 0.9530 0.1306 0.0000
vt 0.0474 0.1304 0.0000
vt 0.0475 0.1228 0.0000
vt 0.9839 0.1539 0.0000
vt 0.9772 0.1502 0.0000
vt 0.0234 0.1499 0.0000
vt 0.0167 0.1535 0.0000
vt 0.9659 0.1226 0.0000
vt 0.9661 0.1303 0.0000
vt 0.0342 0.1301 0.0000
vt 0.0345 0.1224 0.0000
vt 0.0365 0.1595 0.0000
vt 0.9638 0.1595 0.0000
vt 0.0395 0.1467 0.0000
vt 0.9608 0.1467 0.0000
vt 0.9712 0.9855 0.0000
vt 0.5378 0.9859 0.0000
vt 0.7681 0.5870 0.0000
vt 0.9845 0.9625 0.0000
vt 0.5311 0.9822 0.0000
vt 0.7616 0.5830 0.0000
vt 0.5264 0.9778 0.0000
vt 0.7554 0.5811 0.0000
vt 0.5250 0.9714 0.0000
vt 0.7492 0.5831 0.0000
vt 0.5252 0.9640 0.0000
vt 0.7429 0.5870 0.0000
vt 0.9882 0.9723 0.0000
vt 0.9872 0.9794 0.0000
vt 0.9815 0.9838 0.0000
vt 0.1586 0.0307 0.0000
vt 0.1479 0.0046 0.0000
vt 0.1896 0.0048 0.0000
vt 0.1787 0.0308 0.0000
vt 0.1443 0.0448 0.0000
vt 0.1183 0.0339 0.0000
vt 0.1442 0.0649 0.0000
vt 0.1181 0.0756 0.0000
vt 0.1584 0.0792 0.0000
vt 0.1475 0.1052 0.0000
vt 0.1785 0.0793 0.0000
vt 0.1891 0.1054 0.0000
vt 0.1927 0.0651 0.0000
vt 0.2187 0.0760 0.0000
vt 0.1928 0.0450 0.0000
vt 0.2189 0.0343 0.0000
vt 0.1685 0.0550 0.0000
vt 0.0543 0.0307 0.0000
vt 0.0436 0.0046 0.0000
vt 0.0853 0.0048 0.0000
vt 0.0744 0.0308 0.0000
vt 0.0400 0.0448 0.0000
vt 0.0141 0.0339 0.0000
vt 0.0400 0.0649 0.0000
vt 0.0139 0.0756 0.0000
vt 0.0541 0.0792 0.0000
vt 0.0432 0.1052 0.0000
vt 0.0742 0.0793 0.0000
vt 0.0849 0.1054 0.0000
vt 0.0885 0.0651 0.0000
vt 0.1145 0.0760 0.0000
vt 0.0886 0.0450 0.0000
vt 0.1147 0.0343 0.0000
vt 0.0643 0.0550 0.0000
vt 0.2641 0.0311 0.0000
vt 0.2534 0.0050 0.0000
vt 0.2951 0.0052 0.0000
vt 0.2842 0.0312 0.0000
vt 0.2498 0.0452 0.0000
vt 0.2238 0.0344 0.0000
vt 0.2497 0.0653 0.0000
vt 0.2237 0.0760 0.0000
vt 0.2639 0.0796 0.0000
vt 0.2530 0.1056 0.0000
vt 0.2840 0.0797 0.0000
vt 0.2947 0.1058 0.0000
vt 0.2983 0.0655 0.0000
vt 0.3242 0.0764 0.0000
vt 0.2983 0.0454 0.0000
vt 0.3244 0.0348 0.0000
vt 0.2740 0.0554 0.0000
vt 0.3620 0.0107 0.0000
vt 0.3747 0.0107 0.0000
vt 0.3747 0.1043 0.0000
vt 0.3620 0.1043 0.0000
vt 0.3874 0.0107 0.0000
vt 0.3874 0.1043 0.0000
vt 0.4001 0.0107 0.0000
vt 0.4001 0.1043 0.0000
vt 0.4128 0.0107 0.0000
vt 0.4128 0.1043 0.0000
vt 0.4255 0.0107 0.0000
vt 0.4255 0.1043 0.0000
vt 0.4382 0.0107 0.0000
vt 0.4382 0.1043 0.0000
vt 0.4509 0.0107 0.0000
vt 0.4509 0.1043 0.0000
vt 0.4635 0.0107 0.0000
vt 0.4635 0.1043 0.0000
# 129 texture coords

g AK_Danger_Sign_Biohazard
usemtl Material__0
s 1
f 1/1/1 2/2/2 3/3/2 4/4/1 
s 2
f 5/5/3 6/6/4 7/7/4 8/8/3 
s 1
f 9/9/5 1/1/1 4/4/1 10/10/5 
s 4
f 11/11/6 12/12/7 13/13/7 14/14/6 
s 1
f 15/15/8 9/9/5 10/10/5 16/16/8 
s 2
f 17/17/9 15/18/10 16/19/10 18/20/9 
f 8/8/3 17/17/9 18/20/9 5/5/3 
s 8
f 18/21/11 10/22/11 4/4/11 5/5/11 
f 18/21/11 16/23/11 10/22/11 
f 19/24/11 20/25/11 12/12/11 11/11/11 
s 2
f 21/26/12 7/7/4 6/6/4 22/27/12 
s 1
f 23/28/13 3/3/2 2/2/2 24/29/14 
s 4
f 14/14/6 25/30/15 19/31/15 11/11/6 
f 12/12/7 20/32/16 26/33/16 13/13/7 
s 2
f 27/34/17 21/26/12 22/27/12 28/35/17 
s 1
f 29/36/18 23/28/13 24/29/14 30/37/18 
s 4
f 25/30/15 27/38/19 28/39/19 19/31/15 
f 20/32/16 29/40/20 30/41/20 26/33/16 
s 8
f 5/5/11 4/4/11 3/3/11 6/6/11 
f 6/6/11 3/3/11 23/42/11 22/43/11 
f 22/43/11 23/42/11 29/44/11 28/45/11 
f 28/45/11 29/44/11 20/25/11 19/24/11 
s off
f 8/46/21 7/47/21 2/48/21 1/49/21 
f 21/50/22 24/51/22 2/48/22 7/47/22 
f 27/52/22 30/53/22 24/51/22 21/50/22 
f 25/54/21 26/55/21 30/53/21 27/52/21 
f 14/56/22 13/57/22 26/55/22 25/54/22 
f 9/58/22 15/59/22 17/60/22 
f 9/58/22 17/60/22 8/46/22 1/49/22 
s 1
f 31/61/23 32/62/24 33/63/25 34/64/26 
f 35/65/27 36/66/28 32/62/24 31/61/23 
f 37/67/29 38/68/30 36/66/28 35/65/27 
f 39/69/31 40/70/32 38/68/30 37/67/29 
f 41/71/33 42/72/34 40/70/32 39/69/31 
f 43/73/35 44/74/36 42/72/34 41/71/33 
f 45/75/37 46/76/38 44/74/36 43/73/35 
f 34/64/26 33/63/25 46/76/38 45/75/37 
f 47/77/39 31/61/23 34/64/26 
f 47/77/39 35/65/27 31/61/23 
f 47/77/39 37/67/29 35/65/27 
f 47/77/39 39/69/31 37/67/29 
f 47/77/39 41/71/33 39/69/31 
f 47/77/39 43/73/35 41/71/33 
f 47/77/39 45/75/37 43/73/35 
f 47/77/39 34/64/26 45/75/37 
f 48/78/23 49/79/24 50/80/40 51/81/41 
f 52/82/27 53/83/42 49/79/24 48/78/23 
f 54/84/29 55/85/43 53/83/42 52/82/27 
f 56/86/44 57/87/45 55/85/43 54/84/29 
f 58/88/46 59/89/47 57/87/45 56/86/44 
f 60/90/48 61/91/49 59/89/47 58/88/46 
f 62/92/37 63/93/38 61/91/49 60/90/48 
f 51/81/41 50/80/40 63/93/38 62/92/37 
f 64/94/50 48/78/23 51/81/41 
f 64/94/50 52/82/27 48/78/23 
f 64/94/50 54/84/29 52/82/27 
f 64/94/50 56/86/44 54/84/29 
f 64/94/50 58/88/46 56/86/44 
f 64/94/50 60/90/48 58/88/46 
f 64/94/50 62/92/37 60/90/48 
f 64/94/50 51/81/41 62/92/37 
f 65/95/23 66/96/24 67/97/40 68/98/41 
f 69/99/27 70/100/42 66/96/24 65/95/23 
f 71/101/29 72/102/43 70/100/42 69/99/27 
f 73/103/44 74/104/45 72/102/43 71/101/29 
f 75/105/46 76/106/47 74/104/45 73/103/44 
f 77/107/48 78/108/49 76/106/47 75/105/46 
f 79/109/37 80/110/38 78/108/49 77/107/48 
f 68/98/41 67/97/40 80/110/38 79/109/37 
f 81/111/50 65/95/23 68/98/41 
f 81/111/50 69/99/27 65/95/23 
f 81/111/50 71/101/29 69/99/27 
f 81/111/50 73/103/44 71/101/29 
f 81/111/50 75/105/46 73/103/44 
f 81/111/50 77/107/48 75/105/46 
f 81/111/50 79/109/37 77/107/48 
f 81/111/50 68/98/41 79/109/37 
f 82/112/51 83/113/52 84/114/52 85/115/53 
f 83/113/52 86/116/54 87/117/54 84/114/52 
f 86/116/54 88/118/55 89/119/56 87/117/54 
f 88/118/55 90/120/57 91/121/58 89/119/56 
f 90/120/57 92/122/59 93/123/60 91/121/58 
f 92/122/59 94/124/61 95/125/62 93/123/60 
f 94/124/61 96/126/63 97/127/63 95/125/62 
f 96/126/63 82/128/51 85/129/53 97/127/63 
f 98/112/64 99/113/65 100/114/52 101/115/51 
f 99/113/65 102/116/66 103/117/66 100/114/52 
f 102/116/66 104/118/67 105/119/68 103/117/66 
f 104/118/67 106/120/57 107/121/58 105/119/68 
f 106/120/57 108/122/69 109/123/70 107/121/58 
f 108/122/69 110/124/71 111/125/72 109/123/70 
f 110/124/71 112/126/73 113/127/73 111/125/72 
f 112/126/73 98/128/64 101/129/51 113/127/73 
f 114/112/74 115/113/65 116/114/52 117/115/51 
f 115/113/65 118/116/66 119/117/66 116/114/52 
f 118/116/66 120/118/67 121/119/68 119/117/66 
f 120/118/67 122/120/57 123/121/75 121/119/68 
f 122/120/57 124/122/69 125/123/70 123/121/75 
f 124/122/69 126/124/71 127/125/72 125/123/70 
f 126/124/71 128/126/73 129/127/73 127/125/72 
f 128/126/73 114/128/74 117/129/51 129/127/73 
# 75 polygons - 26 triangles

