# 3ds Max Wavefront OBJ Exporter v0.97b - (c)2007 guruware
# File Created: 24.05.2016 22:16:17

#
# object Box1438
#

v  -241.2748 -796.5490 -4457.3921
v  -241.2752 -796.5491 -6874.2349
v  -241.2746 -224.6242 -4457.3921
v  -241.2750 -224.6244 -6874.2349
v  1759.9215 -796.5496 -4457.3926
v  1759.9211 -796.5497 -6874.2354
v  1759.9216 -224.6248 -4457.3926
v  1759.9213 -224.6249 -6874.2354
# 8 vertices

vn -1.0000 0.0000 0.0000
vn 1.0000 -0.0000 -0.0000
vn -0.0000 -1.0000 0.0000
vn -0.0000 -0.0000 -1.0000
vn 0.0000 1.0000 -0.0000
vn 0.0000 0.0000 1.0000
# 6 vertex normals

vt 1.0000 0.0000 0.0000
vt 1.0000 1.0000 0.0000
vt 0.0000 1.0000 0.0000
vt 0.0000 0.0000 0.0000
# 4 texture coords

g Box1438
s 2
f 1/1/1 3/2/1 4/3/1 2/4/1 
s 4
f 5/4/2 6/1/2 8/2/2 7/3/2 
s 8
f 1/4/3 2/1/3 6/2/3 5/3/3 
s 16
f 2/4/4 4/1/4 8/2/4 6/3/4 
s 32
f 4/4/5 3/1/5 7/2/5 8/3/5 
s 64
f 3/4/6 1/1/6 5/2/6 7/3/6 
# 6 polygons

